<svg xmlns="http://www.w3.org/2000/svg" viewBox="0 0 634.25 300.98"><defs><style>.cls-1{fill:#242426;}.cls-1,.cls-2,.cls-3{opacity:0.29;}.cls-2,.cls-4{fill:#3f3d3b;}.cls-3{fill:#7e8382;}</style></defs><g id="Layer_2" data-name="Layer 2"><g id="Layer_1-2" data-name="Layer 1"><path class="cls-1" d="M417.79,18.21a5.67,5.67,0,0,0,0-8l-8.56-8.55a5.66,5.66,0,0,0-8,0L296.39,106.5a1.52,1.52,0,0,0,1.07,2.6h28.81a1.49,1.49,0,0,0,1.07-.45Z"/><path class="cls-1" d="M129.79,276.28a5.66,5.66,0,0,0,0,8l8.56,8.55a5.64,5.64,0,0,0,8,0l87-86.95a1.52,1.52,0,0,0-1.07-2.6H203.42a1.49,1.49,0,0,0-1.07.45Z"/><path class="cls-2" d="M163.05,280.77a5.66,5.66,0,0,0,0,8l8.55,8.55a5.66,5.66,0,0,0,8,0l91.45-91.44a1.53,1.53,0,0,0-1.08-2.6h-28.8a1.5,1.5,0,0,0-1.08.45Z"/><path class="cls-2" d="M451,22.7a5.66,5.66,0,0,0,0-8l-8.56-8.56a5.66,5.66,0,0,0-8,0L334.13,106.5a1.52,1.52,0,0,0,1.08,2.6H364a1.51,1.51,0,0,0,1.08-.45Z"/><path class="cls-3" d="M488,24.7a5.66,5.66,0,0,0,0-8l-8.56-8.56a5.66,5.66,0,0,0-8,0L373.13,106.5a1.52,1.52,0,0,0,1.08,2.6H403a1.51,1.51,0,0,0,1.08-.45Z"/><path class="cls-3" d="M200.05,282.77a5.66,5.66,0,0,0,0,8l8.55,8.55a5.66,5.66,0,0,0,8,0l93.45-93.44a1.53,1.53,0,0,0-1.08-2.6h-28.8a1.5,1.5,0,0,0-1.08.45Z"/><path class="cls-4" d="M61.56,170.55H18.22l-7.64,11.23H0l34.13-49.11H45.72l34.21,49.11H69.27Zm-4.32-6.34L39.89,138.79,22.54,164.21Z"/><path class="cls-4" d="M71.64,140.23v-7.56h68v7.56H110v41.55h-8.79V140.23Z"/><path class="cls-4" d="M209.67,174.22v7.56H147.24V132.67H156v41.55Z"/><path class="cls-4" d="M274.9,170.55H231.55l-7.63,11.23H213.33l34.14-49.11h11.59l34.2,49.11H282.6Zm-4.32-6.34-17.35-25.42-17.36,25.42Z"/><path class="cls-4" d="M330.62,182.64a169.86,169.86,0,0,1-33.48-3.52l1.23-7.21a174.38,174.38,0,0,0,34.27,3.68c16.85,0,20-2,20-7.06,0-5.4-3.24-6.26-9.43-6.91l-28-2.45c-12.61-.94-18.87-4.25-18.87-13.25,0-10.15,8.14-14,30.31-14a182.74,182.74,0,0,1,32.12,3.24L357.34,142a191.28,191.28,0,0,0-32.48-3c-17,0-20.16,1.72-20.16,6.76,0,4.76,3.53,5.62,10.16,6.34l27.29,2.3c12,.94,18.86,4,18.86,14.41C361,178.54,354.24,182.64,330.62,182.64Z"/><path class="cls-4" d="M395,181.78V132.67h47.16c12,0,18.87,4.61,18.87,16.06,0,10.37-5.76,15.48-17.14,15.91l-5.47.07,4.39,3,17.21,14H448.78l-20.16-16.71H403.77v16.71Zm8.78-23.47h37.81c7.41,0,10.44-2.6,10.44-9s-3-9.07-10.44-9.07H403.77Z"/><path class="cls-4" d="M470.37,181.78V132.67h8.79v49.11Z"/><path class="cls-4" d="M489.38,181.78V132.67h43.85c18.8,0,28.73,6.55,28.73,24.48,0,18.15-10,24.63-28.73,24.63Zm8.79-7.56h34.27c14.83,0,20.45-4.61,20.45-17.07s-5.62-16.92-20.45-16.92H498.17Z"/><path class="cls-4" d="M570.67,181.78V132.67h63.58v7.06h-54.8v14h53.43v6H579.45v15h54.8v7.06Z"/></g></g></svg>