<svg xmlns="http://www.w3.org/2000/svg" viewBox="0 0 822.06 103.9"><defs><style>.cls-1,.cls-3{fill:#3f3d3b;}.cls-2{fill:#151517;}.cls-2,.cls-3,.cls-4{opacity:0.29;}.cls-4{fill:#7e8382;}</style></defs><g id="Layer_2" data-name="Layer 2"><g id="Layer_1-2" data-name="Layer 1"><path class="cls-1" d="M249.38,49H206L198.4,60.2H187.81l34.13-49.11h11.59L267.74,60.2H257.08Zm-4.32-6.34L227.7,17.21,210.35,42.63Z"/><path class="cls-1" d="M259.45,18.65V11.09h68v7.56h-29.6V60.2h-8.78V18.65Z"/><path class="cls-1" d="M397.48,52.64V60.2H335.05V11.09h8.79V52.64Z"/><path class="cls-1" d="M462.71,49H419.36L411.73,60.2H401.15l34.13-49.11h11.59l34.2,49.11H470.42Zm-4.32-6.34L441,17.21,423.68,42.63Z"/><path class="cls-1" d="M518.44,61.06A169.88,169.88,0,0,1,485,57.54l1.23-7.2A175.35,175.35,0,0,0,520.45,54c16.85,0,20-1.95,20-7.06,0-5.4-3.24-6.26-9.43-6.91l-28-2.45c-12.6-.94-18.87-4.25-18.87-13.25,0-10.15,8.14-14,30.32-14a182.72,182.72,0,0,1,32.11,3.24l-1.44,6.84a191.25,191.25,0,0,0-32.47-3c-17,0-20.16,1.72-20.16,6.76,0,4.76,3.52,5.62,10.15,6.34L530,32.77c12,.93,18.86,4,18.86,14.4C548.82,57,542.06,61.06,518.44,61.06Z"/><path class="cls-1" d="M582.8,60.2V11.09H630c12,0,18.86,4.61,18.86,16.06,0,10.37-5.76,15.48-17.13,15.91l-5.48.07,4.39,3,17.21,14H636.59L616.43,43.49H591.59V60.2Zm8.79-23.47h37.8c7.42,0,10.44-2.6,10.44-9,0-6.56-3-9.08-10.44-9.08h-37.8Z"/><path class="cls-1" d="M658.19,60.2V11.09H667V60.2Z"/><path class="cls-1" d="M677.19,60.2V11.09h43.86c18.79,0,28.73,6.55,28.73,24.48,0,18.15-10,24.63-28.73,24.63ZM686,52.64h34.27c14.84,0,20.45-4.61,20.45-17.07s-5.61-16.92-20.45-16.92H686Z"/><path class="cls-1" d="M758.48,60.2V11.09h63.58v7.06H767.27v14H820.7v6H767.27v15h54.79V60.2Z"/><path class="cls-1" d="M190.52,86.43a3.48,3.48,0,0,1,3.82,3.27H193.1a2.31,2.31,0,0,0-2.6-2.16c-1.71,0-2.84.88-2.84,2.26,0,1.07.63,1.75,1.91,2.07l2.09.51c1.9.46,2.89,1.55,2.89,3.2,0,2.11-1.63,3.45-4.15,3.45-2.36,0-4-1.24-4.11-3.23h1.26c.06,1.28,1.18,2.11,2.85,2.11s2.92-.87,2.92-2.26c0-1.09-.61-1.8-1.92-2.11L189.35,93c-1.91-.46-2.91-1.55-2.91-3.21C186.44,87.78,188.07,86.43,190.52,86.43Z"/><path class="cls-1" d="M202.76,98.83V97.7l7-9.92h-6.95V86.66h8.45v1.08l-7,10h7v1.13Z"/><path class="cls-1" d="M220.2,98.83V86.66h7.28v1.12h-6v4.38h5.49v1.11h-5.49V97.7h6.06v1.13Z"/><path class="cls-1" d="M236.78,98.83V86.66H238l4.44,10.72,4.44-10.72h1.22V98.83h-1.21V93.05c0-2.13,0-3.06.11-3.9l-4,9.68h-1.17l-4-9.62c.07.45.1,1.8.1,3.65v6Z"/><path class="cls-1" d="M257.84,98.83V86.66h7.27v1.12h-6.05v4.38h5.49v1.11h-5.49V97.7h6.07v1.13Zm4.08-13.09h-1l1-2h1.22Z"/><path class="cls-1" d="M275.64,97.7h5.59v1.13h-6.82V86.66h1.23Z"/><path class="cls-1" d="M287.4,86.66h1.38l3,5.25c.13.25.24.46.35.73l.38-.73,3-5.25h1.35l-4.08,7.08v5.09h-1.23V93.74Z"/><path class="cls-1" d="M308.5,86.43a3.48,3.48,0,0,1,3.82,3.27h-1.24a2.31,2.31,0,0,0-2.6-2.16c-1.72,0-2.84.88-2.84,2.26,0,1.07.63,1.75,1.91,2.07l2.09.51c1.9.46,2.89,1.55,2.89,3.2,0,2.11-1.63,3.45-4.15,3.45-2.36,0-4-1.24-4.11-3.23h1.25c.07,1.28,1.19,2.11,2.86,2.11s2.92-.87,2.92-2.26c0-1.09-.61-1.8-1.92-2.11L307.33,93c-1.91-.46-2.91-1.55-2.91-3.21C304.42,87.78,306.05,86.43,308.5,86.43Z"/><path class="cls-1" d="M320.74,98.83V97.7l7-9.92h-6.95V86.66h8.45v1.08l-7,10h7v1.13Z"/><path class="cls-1" d="M336.94,98.83l4.47-12.17h1.51l4.53,12.17h-1.28L345,95.6h-5.61l-1.19,3.23Zm2.8-4.3h4.85l-2.28-6.16c-.05-.17-.13-.37-.15-.49a4.87,4.87,0,0,1-.15.49Zm2.95-8.79h-1l1-2H344Z"/><path class="cls-1" d="M357.17,97.7h5.59v1.13H356V86.66h1.22Z"/><path class="cls-1" d="M372.62,97.7h5.59v1.13H371.4V86.66h1.22Z"/><path class="cls-1" d="M388.07,98.83h-1.22V86.66h1.22ZM388,85.74h-1l1-2h1.22Z"/><path class="cls-1" d="M396.56,86.66h8.72v1.12h-3.76v11H400.3v-11h-3.74Z"/><path class="cls-1" d="M411.42,98.83l4.47-12.17h1.51l4.52,12.17h-1.27l-1.19-3.23h-5.61l-1.19,3.23Zm2.8-4.3h4.85l-2.28-6.16c-.05-.17-.14-.37-.16-.49a2.34,2.34,0,0,1-.15.49Zm2.94-8.79h-1l1-2h1.22Z"/><path class="cls-1" d="M433.77,86.43a3.5,3.5,0,0,1,3.83,3.27h-1.25a2.31,2.31,0,0,0-2.6-2.16c-1.71,0-2.84.88-2.84,2.26,0,1.07.63,1.75,1.91,2.07l2.09.51c1.9.46,2.89,1.55,2.89,3.2,0,2.11-1.63,3.45-4.15,3.45-2.36,0-4-1.24-4.11-3.23h1.26c.06,1.28,1.19,2.11,2.85,2.11s2.92-.87,2.92-2.26c0-1.09-.61-1.8-1.92-2.11l-2-.51c-1.91-.46-2.91-1.55-2.91-3.21C429.69,87.78,431.32,86.43,433.77,86.43Z"/><path class="cls-2" d="M116.05,17.34a5.38,5.38,0,0,0,0-7.61L107.9,1.58a5.38,5.38,0,0,0-7.62,0L.43,101.43a1.44,1.44,0,0,0,1,2.47H28.88a1.45,1.45,0,0,0,1-.42Z"/><path class="cls-3" d="M147.72,21.62a5.4,5.4,0,0,0,0-7.62l-8.15-8.15a5.4,5.4,0,0,0-7.62,0L36.37,101.43a1.45,1.45,0,0,0,1,2.47H64.83a1.47,1.47,0,0,0,1-.42Z"/><path class="cls-4" d="M183,23.52a5.38,5.38,0,0,0,0-7.61l-8.15-8.15a5.38,5.38,0,0,0-7.62,0L73.52,101.43a1.44,1.44,0,0,0,1,2.47H102a1.45,1.45,0,0,0,1-.42Z"/></g></g></svg>