<svg xmlns="http://www.w3.org/2000/svg" viewBox="0 0 634.25 92.13"><defs><style>.cls-1{fill:#3f3d3b;}</style></defs><g id="Layer_2" data-name="Layer 2"><g id="Layer_1-2" data-name="Layer 1"><path class="cls-1" d="M195.6,79.53a3.49,3.49,0,0,1,3.83,3.26h-1.24a2.32,2.32,0,0,0-2.6-2.16c-1.72,0-2.84.89-2.84,2.26,0,1.08.63,1.76,1.9,2.08l2.09.51c1.9.46,2.89,1.55,2.89,3.19,0,2.11-1.63,3.45-4.15,3.45-2.36,0-4-1.24-4.11-3.22h1.26c.07,1.27,1.19,2.1,2.85,2.1s2.93-.86,2.93-2.26c0-1.09-.61-1.8-1.92-2.11l-2.06-.51c-1.9-.45-2.91-1.54-2.91-3.21C191.52,80.87,193.15,79.53,195.6,79.53Z"/><path class="cls-1" d="M207.84,91.92V90.8l7-9.93h-7V79.75h8.45v1.09l-7,10h7v1.12Z"/><path class="cls-1" d="M225.28,91.92V79.75h7.28v1.12h-6.05v4.39H232v1.1h-5.49V90.8h6.07v1.12Z"/><path class="cls-1" d="M241.86,91.92V79.75h1.21l4.43,10.73,4.44-10.73h1.22V91.92H252V86.14c0-2.12,0-3.06.1-3.89l-4,9.67h-1.17l-4-9.62c.06.46.1,1.8.1,3.65v6Z"/><path class="cls-1" d="M262.92,91.92V79.75h7.28v1.12h-6.05v4.39h5.49v1.1h-5.49V90.8h6.07v1.12ZM267,78.83h-1l1-2h1.22Z"/><path class="cls-1" d="M280.72,90.8h5.59v1.12H279.5V79.75h1.22Z"/><path class="cls-1" d="M292.48,79.75h1.38l3,5.25c.14.26.24.46.36.73l.37-.73,3-5.25h1.34l-4.08,7.09v5.08h-1.22V86.84Z"/><path class="cls-1" d="M313.58,79.53a3.49,3.49,0,0,1,3.83,3.26h-1.24a2.33,2.33,0,0,0-2.61-2.16c-1.71,0-2.83.89-2.83,2.26,0,1.08.62,1.76,1.9,2.08l2.09.51c1.9.46,2.89,1.55,2.89,3.19,0,2.11-1.63,3.45-4.15,3.45-2.36,0-4-1.24-4.11-3.22h1.26c.07,1.27,1.19,2.1,2.85,2.1s2.93-.86,2.93-2.26c0-1.09-.62-1.8-1.92-2.11l-2.06-.51c-1.9-.45-2.91-1.54-2.91-3.21C309.5,80.87,311.13,79.53,313.58,79.53Z"/><path class="cls-1" d="M325.82,91.92V90.8l7-9.93h-7V79.75h8.45v1.09l-7,10h7v1.12Z"/><path class="cls-1" d="M342,91.92l4.47-12.17H348l4.52,12.17h-1.28l-1.19-3.23h-5.61l-1.19,3.23Zm2.81-4.3h4.84l-2.28-6.15c-.05-.17-.13-.38-.15-.5a2.94,2.94,0,0,1-.15.5Zm2.94-8.79h-.95l1-2h1.22Z"/><path class="cls-1" d="M362.25,90.8h5.59v1.12H361V79.75h1.22Z"/><path class="cls-1" d="M377.71,90.8h5.59v1.12h-6.82V79.75h1.23Z"/><path class="cls-1" d="M393.16,91.92h-1.23V79.75h1.23Zm-.09-13.09h-1l1-2h1.22Z"/><path class="cls-1" d="M401.64,79.75h8.72v1.12H406.6v11h-1.22v-11h-3.74Z"/><path class="cls-1" d="M416.5,91.92,421,79.75h1.51L427,91.92h-1.27l-1.19-3.23h-5.61l-1.19,3.23Zm2.8-4.3h4.85l-2.28-6.15a3.77,3.77,0,0,1-.15-.5,3.1,3.1,0,0,1-.16.5Zm2.94-8.79h-.95l1-2h1.23Z"/><path class="cls-1" d="M438.85,79.53a3.49,3.49,0,0,1,3.83,3.26h-1.24a2.32,2.32,0,0,0-2.6-2.16c-1.72,0-2.84.89-2.84,2.26,0,1.08.63,1.76,1.9,2.08l2.09.51c1.91.46,2.89,1.55,2.89,3.19,0,2.11-1.63,3.45-4.15,3.45-2.36,0-4-1.24-4.11-3.22h1.26c.07,1.27,1.19,2.1,2.85,2.1s2.93-.86,2.93-2.26c0-1.09-.61-1.8-1.92-2.11l-2.06-.51c-1.9-.45-2.91-1.54-2.91-3.21C434.77,80.87,436.41,79.53,438.85,79.53Z"/><path class="cls-1" d="M61.56,38.67H18.22L10.58,49.9H0L34.13.79H45.72L79.93,49.9H69.27Zm-4.32-6.34L39.89,6.91,22.54,32.33Z"/><path class="cls-1" d="M71.64,8.35V.79h68V8.35H110V49.9h-8.79V8.35Z"/><path class="cls-1" d="M209.67,42.34V49.9H147.24V.79H156V42.34Z"/><path class="cls-1" d="M274.9,38.67H231.55L223.92,49.9H213.33L247.47.79h11.59l34.2,49.11H282.6Zm-4.32-6.34L253.23,6.91,235.87,32.33Z"/><path class="cls-1" d="M330.62,50.76a169.86,169.86,0,0,1-33.48-3.52l1.23-7.2a175.18,175.18,0,0,0,34.27,3.67c16.85,0,20-2,20-7.06,0-5.4-3.24-6.26-9.43-6.91l-28-2.45C302.61,26.35,296.35,23,296.35,14c0-10.15,8.14-14,30.31-14a182.74,182.74,0,0,1,32.12,3.24l-1.44,6.84a191.28,191.28,0,0,0-32.48-3c-17,0-20.16,1.72-20.16,6.77,0,4.75,3.53,5.61,10.16,6.33l27.29,2.31c12,.93,18.86,4,18.86,14.4C361,46.66,354.24,50.76,330.62,50.76Z"/><path class="cls-1" d="M395,49.9V.79h47.16C454.18.79,461,5.4,461,16.85c0,10.37-5.76,15.48-17.14,15.91l-5.47.07,4.39,3L460,49.9H448.78L428.62,33.19H403.77V49.9Zm8.78-23.47h37.81c7.41,0,10.44-2.6,10.44-9,0-6.56-3-9.08-10.44-9.08H403.77Z"/><path class="cls-1" d="M470.37,49.9V.79h8.79V49.9Z"/><path class="cls-1" d="M489.38,49.9V.79h43.85C552,.79,562,7.34,562,25.27c0,18.15-10,24.63-28.73,24.63Zm8.79-7.56h34.27c14.83,0,20.45-4.61,20.45-17.07S547.27,8.35,532.44,8.35H498.17Z"/><path class="cls-1" d="M570.67,49.9V.79h63.58V7.85h-54.8v14h53.43v6H579.45v15h54.8V49.9Z"/><path class="cls-1" d="M195.6,79.53a3.49,3.49,0,0,1,3.83,3.26h-1.24a2.32,2.32,0,0,0-2.6-2.16c-1.72,0-2.84.89-2.84,2.26,0,1.08.63,1.76,1.9,2.08l2.09.51c1.9.46,2.89,1.55,2.89,3.19,0,2.11-1.63,3.45-4.15,3.45-2.36,0-4-1.24-4.11-3.22h1.26c.07,1.27,1.19,2.1,2.85,2.1s2.93-.86,2.93-2.26c0-1.09-.61-1.8-1.92-2.11l-2.06-.51c-1.9-.45-2.91-1.54-2.91-3.21C191.52,80.87,193.15,79.53,195.6,79.53Z"/><path class="cls-1" d="M207.84,91.92V90.8l7-9.93h-7V79.75h8.45v1.09l-7,10h7v1.12Z"/><path class="cls-1" d="M225.28,91.92V79.75h7.28v1.12h-6.05v4.39H232v1.1h-5.49V90.8h6.07v1.12Z"/><path class="cls-1" d="M241.86,91.92V79.75h1.21l4.43,10.73,4.44-10.73h1.22V91.92H252V86.14c0-2.12,0-3.06.1-3.89l-4,9.67h-1.17l-4-9.62c.06.46.1,1.8.1,3.65v6Z"/><path class="cls-1" d="M262.92,91.92V79.75h7.28v1.12h-6.05v4.39h5.49v1.1h-5.49V90.8h6.07v1.12ZM267,78.83h-1l1-2h1.22Z"/><path class="cls-1" d="M280.72,90.8h5.59v1.12H279.5V79.75h1.22Z"/><path class="cls-1" d="M292.48,79.75h1.38l3,5.25c.14.26.24.46.36.73l.37-.73,3-5.25h1.34l-4.08,7.09v5.08h-1.22V86.84Z"/><path class="cls-1" d="M313.58,79.53a3.49,3.49,0,0,1,3.83,3.26h-1.24a2.33,2.33,0,0,0-2.61-2.16c-1.71,0-2.83.89-2.83,2.26,0,1.08.62,1.76,1.9,2.08l2.09.51c1.9.46,2.89,1.55,2.89,3.19,0,2.11-1.63,3.45-4.15,3.45-2.36,0-4-1.24-4.11-3.22h1.26c.07,1.27,1.19,2.1,2.85,2.1s2.93-.86,2.93-2.26c0-1.09-.62-1.8-1.92-2.11l-2.06-.51c-1.9-.45-2.91-1.54-2.91-3.21C309.5,80.87,311.13,79.53,313.58,79.53Z"/><path class="cls-1" d="M325.82,91.92V90.8l7-9.93h-7V79.75h8.45v1.09l-7,10h7v1.12Z"/><path class="cls-1" d="M342,91.92l4.47-12.17H348l4.52,12.17h-1.28l-1.19-3.23h-5.61l-1.19,3.23Zm2.81-4.3h4.84l-2.28-6.15c-.05-.17-.13-.38-.15-.5a2.94,2.94,0,0,1-.15.5Zm2.94-8.79h-.95l1-2h1.22Z"/><path class="cls-1" d="M362.25,90.8h5.59v1.12H361V79.75h1.22Z"/><path class="cls-1" d="M377.71,90.8h5.59v1.12h-6.82V79.75h1.23Z"/><path class="cls-1" d="M393.16,91.92h-1.23V79.75h1.23Zm-.09-13.09h-1l1-2h1.22Z"/><path class="cls-1" d="M401.64,79.75h8.72v1.12H406.6v11h-1.22v-11h-3.74Z"/><path class="cls-1" d="M416.5,91.92,421,79.75h1.51L427,91.92h-1.27l-1.19-3.23h-5.61l-1.19,3.23Zm2.8-4.3h4.85l-2.28-6.15a3.77,3.77,0,0,1-.15-.5,3.1,3.1,0,0,1-.16.5Zm2.94-8.79h-.95l1-2h1.23Z"/><path class="cls-1" d="M438.85,79.53a3.49,3.49,0,0,1,3.83,3.26h-1.24a2.32,2.32,0,0,0-2.6-2.16c-1.72,0-2.84.89-2.84,2.26,0,1.08.63,1.76,1.9,2.08l2.09.51c1.91.46,2.89,1.55,2.89,3.19,0,2.11-1.63,3.45-4.15,3.45-2.36,0-4-1.24-4.11-3.22h1.26c.07,1.27,1.19,2.1,2.85,2.1s2.93-.86,2.93-2.26c0-1.09-.61-1.8-1.92-2.11l-2.06-.51c-1.9-.45-2.91-1.54-2.91-3.21C434.77,80.87,436.41,79.53,438.85,79.53Z"/><path class="cls-1" d="M61.56,38.67H18.22L10.58,49.9H0L34.13.79H45.72L79.93,49.9H69.27Zm-4.32-6.34L39.89,6.91,22.54,32.33Z"/><path class="cls-1" d="M71.64,8.35V.79h68V8.35H110V49.9h-8.79V8.35Z"/><path class="cls-1" d="M209.67,42.34V49.9H147.24V.79H156V42.34Z"/><path class="cls-1" d="M274.9,38.67H231.55L223.92,49.9H213.33L247.47.79h11.59l34.2,49.11H282.6Zm-4.32-6.34L253.23,6.91,235.87,32.33Z"/><path class="cls-1" d="M330.62,50.76a169.86,169.86,0,0,1-33.48-3.52l1.23-7.2a175.18,175.18,0,0,0,34.27,3.67c16.85,0,20-2,20-7.06,0-5.4-3.24-6.26-9.43-6.91l-28-2.45C302.61,26.35,296.35,23,296.35,14c0-10.15,8.14-14,30.31-14a182.74,182.74,0,0,1,32.12,3.24l-1.44,6.84a191.28,191.28,0,0,0-32.48-3c-17,0-20.16,1.72-20.16,6.77,0,4.75,3.53,5.61,10.16,6.33l27.29,2.31c12,.93,18.86,4,18.86,14.4C361,46.66,354.24,50.76,330.62,50.76Z"/><path class="cls-1" d="M395,49.9V.79h47.16C454.18.79,461,5.4,461,16.85c0,10.37-5.76,15.48-17.14,15.91l-5.47.07,4.39,3L460,49.9H448.78L428.62,33.19H403.77V49.9Zm8.78-23.47h37.81c7.41,0,10.44-2.6,10.44-9,0-6.56-3-9.08-10.44-9.08H403.77Z"/><path class="cls-1" d="M470.37,49.9V.79h8.79V49.9Z"/><path class="cls-1" d="M489.38,49.9V.79h43.85C552,.79,562,7.34,562,25.27c0,18.15-10,24.63-28.73,24.63Zm8.79-7.56h34.27c14.83,0,20.45-4.61,20.45-17.07S547.27,8.35,532.44,8.35H498.17Z"/><path class="cls-1" d="M570.67,49.9V.79h63.58V7.85h-54.8v14h53.43v6H579.45v15h54.8V49.9Z"/></g></g></svg>