<svg xmlns="http://www.w3.org/2000/svg" viewBox="0 0 634.25 300.98"><defs><style>.cls-1,.cls-3{fill:#3f3d3b;}.cls-2{fill:#242426;}.cls-2,.cls-3,.cls-4{opacity:0.29;}.cls-4{fill:#7e8382;}</style></defs><g id="Layer_2" data-name="Layer 2"><g id="Layer_1-2" data-name="Layer 1"><path class="cls-1" d="M344.76,198.41a3.48,3.48,0,0,1,3.82,3.26h-1.24a2.32,2.32,0,0,0-2.6-2.16c-1.72,0-2.84.89-2.84,2.26,0,1.07.63,1.75,1.91,2.08l2.09.51c1.9.46,2.89,1.54,2.89,3.19,0,2.11-1.64,3.45-4.15,3.45s-4-1.24-4.12-3.23h1.26c.07,1.28,1.19,2.11,2.86,2.11s2.92-.87,2.92-2.26c0-1.09-.61-1.8-1.92-2.11l-2.06-.51c-1.9-.45-2.9-1.54-2.9-3.21C340.68,199.75,342.31,198.41,344.76,198.41Z"/><path class="cls-1" d="M357,210.8v-1.12l7-9.93h-6.95v-1.12h8.45v1.09l-7,10h7v1.12Z"/><path class="cls-1" d="M374.44,210.8V198.63h7.27v1.12h-6v4.39h5.49v1.1h-5.49v4.44h6.07v1.12Z"/><path class="cls-1" d="M391,210.8V198.63h1.21l4.44,10.72,4.43-10.72h1.23V210.8h-1.21V205c0-2.12,0-3.06.1-3.89l-4,9.67h-1.17l-4-9.62c.07.46.1,1.8.1,3.65v6Z"/><path class="cls-1" d="M412.08,210.8V198.63h7.27v1.12H413.3v4.39h5.49v1.1H413.3v4.44h6.07v1.12Zm4.08-13.09h-1l1-2h1.23Z"/><path class="cls-1" d="M429.88,209.68h5.59v1.12h-6.82V198.63h1.23Z"/><path class="cls-1" d="M441.64,198.63H443l3,5.25c.14.26.24.46.36.73.15-.3.15-.3.38-.73l3-5.25h1.34L447,205.72v5.08h-1.22v-5.08Z"/><path class="cls-1" d="M462.74,198.41a3.48,3.48,0,0,1,3.82,3.26h-1.24a2.32,2.32,0,0,0-2.6-2.16c-1.72,0-2.84.89-2.84,2.26,0,1.07.63,1.75,1.9,2.08l2.1.51c1.9.46,2.89,1.54,2.89,3.19,0,2.11-1.64,3.45-4.15,3.45s-4-1.24-4.12-3.23h1.26c.07,1.28,1.19,2.11,2.86,2.11s2.92-.87,2.92-2.26c0-1.09-.61-1.8-1.92-2.11l-2.06-.51c-1.9-.45-2.9-1.54-2.9-3.21C458.66,199.75,460.29,198.41,462.74,198.41Z"/><path class="cls-1" d="M475,210.8v-1.12l7-9.93h-7v-1.12h8.45v1.09l-7,10h7v1.12Z"/><path class="cls-1" d="M491.18,210.8l4.47-12.17h1.51l4.52,12.17h-1.27l-1.19-3.23h-5.61l-1.19,3.23Zm2.8-4.3h4.85l-2.28-6.15a3.77,3.77,0,0,1-.15-.5,3.1,3.1,0,0,1-.16.5Zm2.94-8.79H496l1-2h1.23Z"/><path class="cls-1" d="M511.41,209.68H517v1.12h-6.82V198.63h1.23Z"/><path class="cls-1" d="M526.86,209.68h5.59v1.12h-6.81V198.63h1.22Z"/><path class="cls-1" d="M542.31,210.8h-1.22V198.63h1.22Zm-.08-13.09h-1l1-2h1.23Z"/><path class="cls-1" d="M550.8,198.63h8.72v1.12h-3.76V210.8h-1.23V199.75H550.8Z"/><path class="cls-1" d="M565.65,210.8l4.47-12.17h1.52l4.52,12.17h-1.28l-1.19-3.23h-5.61l-1.19,3.23Zm2.81-4.3h4.84L571,200.35c0-.17-.13-.38-.15-.5a2.94,2.94,0,0,1-.15.5Zm2.94-8.79h-.95l1-2h1.22Z"/><path class="cls-1" d="M588,198.41a3.48,3.48,0,0,1,3.82,3.26h-1.24a2.32,2.32,0,0,0-2.6-2.16c-1.72,0-2.84.89-2.84,2.26,0,1.07.63,1.75,1.91,2.08l2.09.51c1.9.46,2.89,1.54,2.89,3.19,0,2.11-1.64,3.45-4.15,3.45s-4-1.24-4.12-3.23H585c.07,1.28,1.19,2.11,2.86,2.11s2.92-.87,2.92-2.26c0-1.09-.61-1.8-1.92-2.11l-2.06-.51c-1.9-.45-2.9-1.54-2.9-3.21C583.93,199.75,585.56,198.41,588,198.41Z"/><path class="cls-2" d="M417.79,18.21a5.67,5.67,0,0,0,0-8l-8.56-8.55a5.66,5.66,0,0,0-8,0L296.39,106.5a1.52,1.52,0,0,0,1.07,2.6h28.81a1.49,1.49,0,0,0,1.07-.45Z"/><path class="cls-2" d="M129.79,276.28a5.66,5.66,0,0,0,0,8l8.56,8.55a5.64,5.64,0,0,0,8,0l87-86.95a1.52,1.52,0,0,0-1.07-2.6H203.42a1.49,1.49,0,0,0-1.07.45Z"/><path class="cls-3" d="M163.05,280.77a5.66,5.66,0,0,0,0,8l8.55,8.55a5.66,5.66,0,0,0,8,0l91.45-91.44a1.53,1.53,0,0,0-1.08-2.6h-28.8a1.5,1.5,0,0,0-1.08.45Z"/><path class="cls-3" d="M451,22.7a5.66,5.66,0,0,0,0-8l-8.56-8.56a5.66,5.66,0,0,0-8,0L334.13,106.5a1.52,1.52,0,0,0,1.08,2.6H364a1.51,1.51,0,0,0,1.08-.45Z"/><path class="cls-4" d="M488,24.7a5.66,5.66,0,0,0,0-8l-8.56-8.56a5.66,5.66,0,0,0-8,0L373.13,106.5a1.52,1.52,0,0,0,1.08,2.6H403a1.51,1.51,0,0,0,1.08-.45Z"/><path class="cls-4" d="M200.05,282.77a5.66,5.66,0,0,0,0,8l8.55,8.55a5.66,5.66,0,0,0,8,0l93.45-93.44a1.53,1.53,0,0,0-1.08-2.6h-28.8a1.5,1.5,0,0,0-1.08.45Z"/><path class="cls-1" d="M61.56,170.55H18.22l-7.64,11.23H0l34.13-49.11H45.72l34.21,49.11H69.27Zm-4.32-6.34L39.89,138.79,22.54,164.21Z"/><path class="cls-1" d="M71.64,140.23v-7.56h68v7.56H110v41.55h-8.79V140.23Z"/><path class="cls-1" d="M209.67,174.22v7.56H147.24V132.67H156v41.55Z"/><path class="cls-1" d="M274.9,170.55H231.55l-7.63,11.23H213.33l34.14-49.11h11.59l34.2,49.11H282.6Zm-4.32-6.34-17.35-25.42-17.36,25.42Z"/><path class="cls-1" d="M330.62,182.64a169.86,169.86,0,0,1-33.48-3.52l1.23-7.21a174.38,174.38,0,0,0,34.27,3.68c16.85,0,20-2,20-7.06,0-5.4-3.24-6.26-9.43-6.91l-28-2.45c-12.61-.94-18.87-4.25-18.87-13.25,0-10.15,8.14-14,30.31-14a182.74,182.74,0,0,1,32.12,3.24L357.34,142a191.28,191.28,0,0,0-32.48-3c-17,0-20.16,1.72-20.16,6.76,0,4.76,3.53,5.62,10.16,6.34l27.29,2.3c12,.94,18.86,4,18.86,14.41C361,178.54,354.24,182.64,330.62,182.64Z"/><path class="cls-1" d="M395,181.78V132.67h47.16c12,0,18.87,4.61,18.87,16.06,0,10.37-5.76,15.48-17.14,15.91l-5.47.07,4.39,3,17.21,14H448.78l-20.16-16.71H403.77v16.71Zm8.78-23.47h37.81c7.41,0,10.44-2.6,10.44-9s-3-9.07-10.44-9.07H403.77Z"/><path class="cls-1" d="M470.37,181.78V132.67h8.79v49.11Z"/><path class="cls-1" d="M489.38,181.78V132.67h43.85c18.8,0,28.73,6.55,28.73,24.48,0,18.15-10,24.63-28.73,24.63Zm8.79-7.56h34.27c14.83,0,20.45-4.61,20.45-17.07s-5.62-16.92-20.45-16.92H498.17Z"/><path class="cls-1" d="M570.67,181.78V132.67h63.58v7.06h-54.8v14h53.43v6H579.45v15h54.8v7.06Z"/></g></g></svg>